# AST/ASF file generated using VICON BodyLanguage
# -----------------------------------------------
:version 1.10
:name VICON
:units
  mass 1.0
  length 0.45
  angle deg
:documentation
   .ast/.asf automatically generated from VICON data using
   VICON BodyBuilder and BodyLanguage model FoxedUp or BRILLIANT.MOD
:root
   order TX TY TZ RX RY RZ
   axis XYZ
   position 0 0 0  
   orientation 0 0 0 
:bonedata
  begin
     id 1 
     name lhipjoint
     direction 0.692814 -0.645514 0.321437 
     length 2.38754 
     axis 0 0 0  XYZ
  end
  begin
     id 2 
     name lfemur
     direction 0.34202 -0.939693 0  
     length 6.41921  
     axis 0 0 20  XYZ
    dof rx ry rz
    limits (-160.0 20.0)
           (-70.0 70.0)
           (-60.0 70.0)
  end
  begin
     id 3 
     name ltibia
     direction 0.34202 -0.939693 0   
     length 6.98247   
     axis 0 0 20   XYZ
    dof rx
    limits (-10.0 170.0)
  end
  begin
     id 4 
     name lfoot
     direction 0.0947186 -0.260237 0.960888   
     length 1.83034   
     axis -90 7.62852e-016 20   XYZ
    dof rx rz
    limits (-45.0 90.0)
           (-70.0 20.0)
  end
  begin
     id 5 
     name ltoes
     direction 1.53538e-011 -4.21952e-011 1   
     length 0.920499   
     axis -90 7.62852e-016 20   XYZ
    dof rx
    limits (-90.0 20.0)
  end
  begin
     id 6 
     name rhipjoint
     direction -0.631686 -0.693949 0.345555   
     length 2.2209  
     axis 0 0 0  XYZ 
  end
  begin
     id 7 
     name rfemur
     direction -0.34202 -0.939693 0   
     length 6.49542   
     axis 0 0 -20   XYZ
    dof rx ry rz
    limits (-160.0 20.0)
           (-70.0 70.0)
           (-70.0 60.0)
  end
  begin
     id 8 
     name rtibia
     direction -0.34202 -0.939693 0   
     length 7.21712   
     axis 0 0 -20   XYZ
    dof rx
    limits (-10.0 170.0)
 end
 begin
     id 9 
     name rfoot
     direction -0.0825378 -0.226771 0.970444   
     length 1.89724  
     axis -90 -7.62852e-016 -20   XYZ
    dof rx rz
    limits (-45.0 90.0)
           (-20.0 70.0)
  end
  begin
     id 10 
     name rtoes
     direction -1.53515e-011 -4.22016e-011 1   
     length 0.955868   
     axis -90 -7.62852e-016 -20   XYZ
    dof rx
    limits (-90.0 20.0)
  end
  begin
     id 11 
     name lowerback
     direction -0.0104711 0.984802 -0.173368   
     length 1.84931   
     axis 0 0 0   XYZ
    dof rx ry rz
    limits (-20.0 45.0)
           (-30.0 30.0)
           (-30.0 30.0)
  end
  begin
     id 12 
     name upperback
     direction -0.00286433 0.999996 -0.000382853   
     length 1.85768   
     axis 0 0 0   XYZ
    dof rx ry rz
    limits (-20.0 45.0)
           (-30.0 30.0)
           (-30.0 30.0)
  end
  begin
     id 13 
     name thorax
     direction 0.00167534 0.996793 0.0800069   
     length 1.92   
     axis 0 0 0   XYZ
    dof rx ry rz
    limits (-20.0 45.0)
           (-30.0 30.0)
           (-30.0 30.0)
  end
  begin
     id 14 
     name lowerneck
     direction -0.0672491 0.995415 0.068018   
     length 1.58923   
     axis 0 0 0   XYZ
    dof rx ry rz
    limits (-20.0 45.0)
           (-30.0 30.0)
           (-30.0 30.0)
  end
  begin
     id 15 
     name upperneck
     direction 0.0958019 0.982476 -0.159884   
     length 1.60189   
     axis 0 0 0   XYZ
    dof rx ry rz
    limits (-20.0 45.0)
           (-30.0 30.0)
           (-30.0 30.0)
  end
  begin
     id 16
     name head
     direction 0.032989 0.997338 -0.0650226  
     length 1.61681  
     axis 0 0 0   XYZ
    dof rx ry rz
    limits (-20.0 45.0)
           (-30.0 30.0)
           (-30.0 30.0)
  end
  begin
     id 17 
     name lclavicle
     direction 0.954279 0.298875 -0.00496069  
     length 2.99449  
     axis 0 0 0   XYZ
    dof ry rz
    limits (-20.0 10.0)
           (0.0 20.0)
  end
  begin
     id 18 
     name lhumerus
     direction 1 -4.48985e-011 -4.2057e-027   
     length 4.79185   
     axis 180 -30 -90   XYZ
    dof rx ry rz
    limits (-60.0 90.0)
           (-90.0 90.0)
           (-90.0 90.0)
  end
  begin
     id 19
     name lradius
     direction 1 -4.48945e-011 1.15441e-028   
     length 2.65553   
     axis 180 -30 -90   XYZ
    dof rx
    limits (-10.0 170.0)
  end
  begin
     id 20
     name lwrist
     direction 1 -4.4899e-011 4.8894e-028   
     length 1.32777   
     axis -2.56392e-016 90 90   XYZ
    dof ry
    limits (-180.0 0.0)
 end
  begin
     id 21 
     name lhand
     direction 1 -4.48908e-011 9.7788e-028   
     length 0.743904   
     axis -6.23971e-016 90 90   XYZ
    dof rx rz
    limits (-90.0 90.0)
           (-45.0 45.0)
  end
  begin
     id 22 
     name lfingers
     direction 1 -4.49068e-011 1.95576e-027   
     length 0.599754   
     axis -1.24794e-015 90 90   XYZ
    dof rx
    limits (0.0 90.0)
  end
  begin
     id 23
     name lthumb
     direction 0.707107 -6.34883e-011 0.707107   
     length 0.861131   
     axis -90 45 2.85299e-015   XYZ
    dof rx rz
    limits (-45.0 45.0)
           (-45.0 45.0)
  end
  begin
     id 24 
     name rclavicle
     direction -0.957921 0.286916 0.00811568   
     length 3.06817  
     axis 0 0 0   XYZ 
    dof ry rz
    limits (-10.0 20.0)
           (-20.0 0.0)
  end
  begin
     id 25 
     name rhumerus
     direction -1 -4.48971e-011 -3.07942e-027  
     length 4.77254   
     axis 180 30 90   XYZ
    dof rx ry rz
    limits (-90.0 60.0)
           (-90.0 90.0)
           (-90.0 90.0)
  end
  begin
     id 26 
     name rradius
     direction -1 -4.48957e-011 -9.6815e-028   
     length 2.75995   
     axis 180 30 90   XYZ
    dof rx
    limits (-10.0 170.0)
  end
  begin
     id 27 
     name rwrist
     direction -1 -4.48979e-011 4.8894e-028   
     length 1.37997   
     axis -2.56392e-016 -90 -90   XYZ
    dof ry
    limits (-180.0 0.0)
  end
  begin
     id 28
     name rhand
     direction -1 -4.48906e-011 9.7788e-028   
     length 0.701619   
     axis -6.23971e-016 -90 -90   XYZ
    dof rx rz
    limits (-90.0 90.0)
           (-45.0 45.0)
  end
  begin
     id 29
     name rfingers
     direction -1 -4.49018e-011 1.95576e-027   
     length 0.565663   
     axis -1.24794e-015 -90 -90   XYZ
    dof rx
    limits (0.0 90.0)
  end
  begin
     id 30
     name rthumb
     direction -0.707107 -6.34881e-011 0.707107   
     length 0.812183   
     axis -90 -45 -2.85299e-015   XYZ
    dof rx rz
    limits (-45.0 45.0)
           (-45.0 45.0)
  end
:hierarchy
  begin
    root lhipjoint rhipjoint lowerback
    lhipjoint lfemur
    lfemur ltibia
    ltibia lfoot
    lfoot ltoes
    rhipjoint rfemur
    rfemur rtibia
    rtibia rfoot
    rfoot rtoes
    lowerback upperback
    upperback thorax
    thorax lowerneck lclavicle rclavicle
    lowerneck upperneck
    upperneck head
    lclavicle lhumerus
    lhumerus lradius
    lradius lwrist
    lwrist lhand lthumb
    lhand lfingers
    rclavicle rhumerus
    rhumerus rradius
    rradius rwrist
    rwrist rhand rthumb
    rhand rfingers
  end

#!OML:ASF F:\VICON\USERDATA\INSTALL\rory3\rory3.ASF
:FULLY-SPECIFIED
:DEGREES
362
root -0.0241998 15.5284 -0.900391 0.440184 0.45061 1.84696
lowerback 18.1476 -0.428752 -0.87811
upperback -2.8088 -0.77164 0.030248
thorax -13.393 -0.286584 0.759899
lowerneck -10.0791 -5.41628 -11.8792
upperneck 25.6089 -6.78633 5.93617
head 10.4814 -3.62483 3.29328
rclavicle -9.70318e-015 1.98785e-015
rhumerus -82.6249 15.3506 -67.9257
rradius 138.122
rwrist -28.8941
rhand 39.4073 12.9533
rfingers 7.12502
rthumb 61.902 1.33795
lclavicle -9.70318e-015 1.98785e-015
lhumerus -81.1376 -22.4609 69.8911
lradius 137.262
lwrist 61.3246
lhand 22.2045 38.6529
lfingers 7.12502
lthumb 46.583 61.5006
rfemur -18.4012 2.37423 15.1275
rtibia 41.7076
rfoot -19.8634 -9.50131
rtoes -16.1325
lfemur -15.5703 1.20872 -17.7358
ltibia 34.954
lfoot -14.3389 -0.933938
ltoes -11.5363
363
root -0.0250039 15.5214 -0.896565 0.696583 0.481619 1.87741
lowerback 18.3005 -0.465894 -0.912935
upperback -3.13888 -0.830139 0.0577099
thorax -13.8677 -0.304178 0.832546
lowerneck -10.0775 -5.40387 -11.8195
upperneck 25.8947 -6.76153 5.80949
head 10.5775 -3.6263 3.24396
rclavicle 9.64727e-015 2.38542e-015
rhumerus -82.8545 14.0399 -67.2361
rradius 138.143
rwrist -29.1908
rhand 39.3398 13.0745
rfingers 7.12502
rthumb 61.8457 1.38983
lclavicle 9.64727e-015 2.38542e-015
lhumerus -81.1392 -21.0676 69.1358
lradius 137.355
lwrist 62.2007
lhand 22.2101 38.8817
lfingers 7.12502
lthumb 46.5881 61.7273
rfemur -18.8115 2.25074 15.0801
rtibia 41.9753
rfoot -19.9728 -9.45893
rtoes -16.596
lfemur -15.9967 1.32255 -17.7663
ltibia 35.2494
lfoot -14.4448 -1.02342
ltoes -11.8328
364
root -0.0255074 15.5165 -0.892248 0.952193 0.493759 1.90737
lowerback 18.4417 -0.496938 -0.922783
upperback -3.45541 -0.878779 0.0545797
thorax -14.3241 -0.320635 0.854097
lowerneck -10.1237 -5.39537 -11.7597
upperneck 26.2137 -6.76123 5.7696
head 10.7009 -3.62918 3.22233
rclavicle 9.60378e-015 3.18055e-015
rhumerus -83.09 12.7984 -66.6971
rradius 138.149
rwrist -29.6132
rhand 39.7075 12.9893
rfingers 7.12502
rthumb 62.1523 1.68632
lclavicle 9.60378e-015 3.18055e-015
lhumerus -81.3171 -19.6281 68.5015
lradius 137.48
lwrist 62.8567
lhand 22.4674 39.597
lfingers 7.12502
lthumb 46.8263 62.3394
rfemur -19.2756 2.06445 15.0495
rtibia 42.2616
rfoot -19.9212 -9.57648
rtoes -17.1586
lfemur -16.4287 1.4098 -17.7931
ltibia 35.5725
lfoot -14.5425 -1.1784
ltoes -11.7025
365
root -0.0280346 15.5079 -0.888304 1.20514 0.465932 1.84503
lowerback 18.557 -0.53391 -0.855326
upperback -3.74596 -0.914948 0.0619309
thorax -14.7386 -0.337784 0.839521
lowerneck -10.3683 -5.40539 -11.8003
upperneck 26.7483 -6.78698 5.8597
head 10.957 -3.63885 3.26044
rclavicle 1.1163e-014 1.59028e-015
rhumerus -83.2971 11.7052 -66.3748
rradius 138.141
rwrist -29.9919
rhand 40.115 12.7204
rfingers 7.12502
rthumb 62.4904 1.85089
lclavicle 1.1163e-014 1.59028e-015
lhumerus -81.4811 -18.3549 68.022
lradius 137.496
lwrist 63.0338
lhand 22.6484 39.9299
lfingers 7.12502
lthumb 46.9938 62.5988
rfemur -19.7224 2.01198 15.1334
rtibia 42.5867
rfoot -19.9769 -9.62941
rtoes -16.9044
lfemur -16.8689 1.55429 -17.708
ltibia 35.8877
lfoot -14.6436 -1.32728
ltoes -11.7395
366
root -0.0323848 15.4962 -0.883992 1.47423 0.402564 1.85313
lowerback 18.6552 -0.53858 -0.914263
upperback -4.04936 -0.937495 0.0748116
thorax -15.1594 -0.337003 0.899237
lowerneck -10.6127 -5.44443 -11.836
upperneck 27.3139 -6.83733 5.87672
head 11.2282 -3.66777 3.26824
rclavicle 1.06723e-014 4.77083e-015
rhumerus -83.5225 10.7714 -66.1843
rradius 138.071
rwrist -30.2091
rhand 40.3609 12.7633
rfingers 7.12502
rthumb 62.6937 2.16079
lclavicle 1.06723e-014 4.77083e-015
lhumerus -81.7258 -17.316 67.7377
lradius 137.462
lwrist 63.0507
lhand 22.8078 39.8487
lfingers 7.12502
lthumb 47.1412 62.4525
rfemur -20.1941 1.99801 15.1315
rtibia 42.9329
rfoot -20.0823 -9.54128
rtoes -16.4573
lfemur -17.3277 1.79171 -17.6962
ltibia 36.2015
lfoot -14.73 -1.49958
ltoes -11.7885
367
root -0.0361193 15.4861 -0.879126 1.769 0.348391 1.95629
lowerback 18.7204 -0.550059 -1.07082
upperback -4.36467 -0.998607 0.0539327
thorax -15.5756 -0.346112 0.988126
lowerneck -10.7634 -5.44644 -11.6849
upperneck 27.7578 -6.84348 5.75499
head 11.4184 -3.67344 3.19949
rclavicle 1.544e-014 3.37934e-015
rhumerus -83.7016 10.0046 -66.169
rradius 137.923
rwrist -30.4048
rhand 40.5708 12.9237
rfingers 7.12502
rthumb 62.8666 2.55239
lclavicle 1.544e-014 3.37934e-015
lhumerus -82.017 -16.3587 67.5119
lradius 137.399
lwrist 63.1123
lhand 22.9023 39.7905
lfingers 7.12502
lthumb 47.2286 62.3554
rfemur -20.7057 1.92912 15.0152
rtibia 43.2731
rfoot -20.1698 -9.46559
rtoes -16.2115
lfemur -17.8012 2.04197 -17.7958
ltibia 36.511
lfoot -14.82 -1.69567
ltoes -11.9782
